<?xml version="1.0" encoding="UTF-8"?>
<!--Generator: Apple Native CoreSVG 329.6-->
<!DOCTYPE svg
PUBLIC "-//W3C//DTD SVG 1.1//EN"
       "http://www.w3.org/Graphics/SVG/1.1/DTD/svg11.dtd">
<svg version="1.1" xmlns="http://www.w3.org/2000/svg" xmlns:xlink="http://www.w3.org/1999/xlink" viewBox="0 0 3300 2200">
 <!--glyph: "", point size: 100.0, font version: "20.0d8e1", template writer version: "138.0.0"-->
 <style>.monochrome-0 {-sfsymbols-motion-group:1;-sfsymbols-layer-tags:-33eb9c8d796a00d8 7f8673f4ed8fe8da}
.monochrome-1 {opacity:0.0;-sfsymbols-clear-behind:true;-sfsymbols-motion-group:0;-sfsymbols-layer-tags:7f8673f4ed8fe8da _badge arrow.down}
.monochrome-2 {-sfsymbols-motion-group:0;-sfsymbols-always-pulses:true;-sfsymbols-layer-tags:7f8673f4ed8fe8da _badge arrow.down}
.monochrome-3 {opacity:0.0;-sfsymbols-clear-behind:true;-sfsymbols-motion-group:0;-sfsymbols-always-pulses:true;-sfsymbols-layer-tags:7f8673f4ed8fe8da _badge arrow.down}

.multicolor-0:tintColor {-sfsymbols-motion-group:1;-sfsymbols-layer-tags:-33eb9c8d796a00d8 7f8673f4ed8fe8da}
.multicolor-1:tintColor {opacity:0.0;-sfsymbols-clear-behind:true;-sfsymbols-motion-group:0;-sfsymbols-layer-tags:7f8673f4ed8fe8da _badge arrow.down}
.multicolor-2:tintColor {-sfsymbols-motion-group:0;-sfsymbols-always-pulses:true;-sfsymbols-layer-tags:7f8673f4ed8fe8da _badge arrow.down}
.multicolor-3:white {-sfsymbols-motion-group:0;-sfsymbols-always-pulses:true;-sfsymbols-layer-tags:7f8673f4ed8fe8da _badge arrow.down}

.hierarchical-0:secondary {-sfsymbols-motion-group:1;-sfsymbols-layer-tags:-33eb9c8d796a00d8 7f8673f4ed8fe8da}
.hierarchical-1:primary {opacity:0.0;-sfsymbols-clear-behind:true;-sfsymbols-motion-group:0;-sfsymbols-layer-tags:7f8673f4ed8fe8da _badge arrow.down}
.hierarchical-2:primary {-sfsymbols-motion-group:0;-sfsymbols-layer-tags:7f8673f4ed8fe8da _badge arrow.down}
.hierarchical-3:primary {opacity:0.0;-sfsymbols-clear-behind:true;-sfsymbols-motion-group:0;-sfsymbols-layer-tags:7f8673f4ed8fe8da _badge arrow.down}

.SFSymbolsPreviewWireframe {fill:none;opacity:1.0;stroke:black;stroke-width:0.5}
</style>
 <g id="Notes">
  <rect height="2200" id="artboard" style="fill:white;opacity:1" width="3300" x="0" y="0"/>
  <line style="fill:none;stroke:black;opacity:1;stroke-width:0.5;" x1="263" x2="3036" y1="292" y2="292"/>
  <text style="stroke:none;fill:black;font-family:sans-serif;font-size:13;font-weight:bold;" transform="matrix(1 0 0 1 263 322)">Weight/Scale Variations</text>
  <text style="stroke:none;fill:black;font-family:sans-serif;font-size:13;text-anchor:middle;" transform="matrix(1 0 0 1 559.711 322)">Ultralight</text>
  <text style="stroke:none;fill:black;font-family:sans-serif;font-size:13;text-anchor:middle;" transform="matrix(1 0 0 1 856.422 322)">Thin</text>
  <text style="stroke:none;fill:black;font-family:sans-serif;font-size:13;text-anchor:middle;" transform="matrix(1 0 0 1 1153.13 322)">Light</text>
  <text style="stroke:none;fill:black;font-family:sans-serif;font-size:13;text-anchor:middle;" transform="matrix(1 0 0 1 1449.84 322)">Regular</text>
  <text style="stroke:none;fill:black;font-family:sans-serif;font-size:13;text-anchor:middle;" transform="matrix(1 0 0 1 1746.56 322)">Medium</text>
  <text style="stroke:none;fill:black;font-family:sans-serif;font-size:13;text-anchor:middle;" transform="matrix(1 0 0 1 2043.27 322)">Semibold</text>
  <text style="stroke:none;fill:black;font-family:sans-serif;font-size:13;text-anchor:middle;" transform="matrix(1 0 0 1 2339.98 322)">Bold</text>
  <text style="stroke:none;fill:black;font-family:sans-serif;font-size:13;text-anchor:middle;" transform="matrix(1 0 0 1 2636.69 322)">Heavy</text>
  <text style="stroke:none;fill:black;font-family:sans-serif;font-size:13;text-anchor:middle;" transform="matrix(1 0 0 1 2933.4 322)">Black</text>
  <line style="fill:none;stroke:black;opacity:1;stroke-width:0.5;" x1="263" x2="3036" y1="1903" y2="1903"/>
  <g transform="matrix(0.2 0 0 0.2 263 1933)">
   <path d="m46.2402 4.15039c21.7773 0 39.4531-17.627 39.4531-39.4043s-17.6758-39.4043-39.4531-39.4043c-21.7285 0-39.4043 17.627-39.4043 39.4043s17.6758 39.4043 39.4043 39.4043Zm0-7.42188c-17.6758 0-31.9336-14.3066-31.9336-31.9824s14.2578-31.9824 31.9336-31.9824 31.9824 14.3066 31.9824 31.9824-14.3066 31.9824-31.9824 31.9824Zm-17.9688-31.9824c0 2.14844 1.51367 3.61328 3.75977 3.61328h10.498v10.5957c0 2.19727 1.46484 3.71094 3.61328 3.71094 2.24609 0 3.71094-1.51367 3.71094-3.71094v-10.5957h10.5957c2.19727 0 3.71094-1.46484 3.71094-3.61328 0-2.19727-1.51367-3.71094-3.71094-3.71094h-10.5957v-10.5469c0-2.24609-1.46484-3.75977-3.71094-3.75977-2.14844 0-3.61328 1.51367-3.61328 3.75977v10.5469h-10.498c-2.24609 0-3.75977 1.51367-3.75977 3.71094Z"/>
  </g>
  <g transform="matrix(0.2 0 0 0.2 281.506 1933)">
   <path d="m58.5449 14.5508c27.4902 0 49.8047-22.3145 49.8047-49.8047s-22.3145-49.8047-49.8047-49.8047-49.8047 22.3145-49.8047 49.8047 22.3145 49.8047 49.8047 49.8047Zm0-8.30078c-22.9492 0-41.5039-18.5547-41.5039-41.5039s18.5547-41.5039 41.5039-41.5039 41.5039 18.5547 41.5039 41.5039-18.5547 41.5039-41.5039 41.5039Zm-22.6562-41.5039c0 2.39258 1.66016 4.00391 4.15039 4.00391h14.3555v14.4043c0 2.44141 1.66016 4.15039 4.05273 4.15039 2.44141 0 4.15039-1.66016 4.15039-4.15039v-14.4043h14.4043c2.44141 0 4.15039-1.61133 4.15039-4.00391 0-2.44141-1.70898-4.15039-4.15039-4.15039h-14.4043v-14.3555c0-2.49023-1.70898-4.19922-4.15039-4.19922-2.39258 0-4.05273 1.70898-4.05273 4.19922v14.3555h-14.3555c-2.49023 0-4.15039 1.70898-4.15039 4.15039Z"/>
  </g>
  <g transform="matrix(0.2 0 0 0.2 304.924 1933)">
   <path d="m74.8535 28.3203c35.1074 0 63.623-28.4668 63.623-63.5742s-28.5156-63.623-63.623-63.623-63.5742 28.5156-63.5742 63.623 28.4668 63.5742 63.5742 63.5742Zm0-9.08203c-30.127 0-54.4922-24.3652-54.4922-54.4922s24.3652-54.4922 54.4922-54.4922 54.4922 24.3652 54.4922 54.4922-24.3652 54.4922-54.4922 54.4922Zm-28.8574-54.4922c0 2.58789 1.85547 4.39453 4.58984 4.39453h19.7266v19.7754c0 2.68555 1.85547 4.58984 4.44336 4.58984 2.68555 0 4.54102-1.85547 4.54102-4.58984v-19.7754h19.7754c2.68555 0 4.58984-1.80664 4.58984-4.39453 0-2.73438-1.85547-4.58984-4.58984-4.58984h-19.7754v-19.7266c0-2.73438-1.85547-4.63867-4.54102-4.63867-2.58789 0-4.44336 1.9043-4.44336 4.63867v19.7266h-19.7266c-2.73438 0-4.58984 1.85547-4.58984 4.58984Z"/>
  </g>
  <text style="stroke:none;fill:black;font-family:sans-serif;font-size:13;font-weight:bold;" transform="matrix(1 0 0 1 263 1953)">Design Variations</text>
  <text style="stroke:none;fill:black;font-family:sans-serif;font-size:13;" transform="matrix(1 0 0 1 263 1971)">Symbols are supported in up to nine weights and three scales.</text>
  <text style="stroke:none;fill:black;font-family:sans-serif;font-size:13;" transform="matrix(1 0 0 1 263 1989)">For optimal layout with text and other symbols, vertically align</text>
  <text style="stroke:none;fill:black;font-family:sans-serif;font-size:13;" transform="matrix(1 0 0 1 263 2007)">symbols with the adjacent text.</text>
  <line style="fill:none;stroke:#00AEEF;stroke-width:0.5;opacity:1.0;" x1="776" x2="776" y1="1919" y2="1933"/>
  <g transform="matrix(0.2 0 0 0.2 776 1933)">
   <path d="m16.5527 0.78125c2.58789 0 3.85742-0.976562 4.78516-3.71094l6.29883-17.2363h28.8086l6.29883 17.2363c0.927734 2.73438 2.19727 3.71094 4.73633 3.71094 2.58789 0 4.24805-1.5625 4.24805-4.00391 0-0.830078-0.146484-1.61133-0.537109-2.63672l-22.9004-60.9863c-1.12305-2.97852-3.125-4.49219-6.25-4.49219-3.02734 0-5.07812 1.46484-6.15234 4.44336l-22.9004 61.084c-0.390625 1.02539-0.537109 1.80664-0.537109 2.63672 0 2.44141 1.5625 3.95508 4.10156 3.95508Zm13.4766-28.3691 11.8652-32.8613h0.244141l11.8652 32.8613Z"/>
  </g>
  <line style="fill:none;stroke:#00AEEF;stroke-width:0.5;opacity:1.0;" x1="792.836" x2="792.836" y1="1919" y2="1933"/>
  <text style="stroke:none;fill:black;font-family:sans-serif;font-size:13;font-weight:bold;" transform="matrix(1 0 0 1 776 1953)">Margins</text>
  <text style="stroke:none;fill:black;font-family:sans-serif;font-size:13;" transform="matrix(1 0 0 1 776 1971)">Leading and trailing margins on the left and right side of each symbol</text>
  <text style="stroke:none;fill:black;font-family:sans-serif;font-size:13;" transform="matrix(1 0 0 1 776 1989)">can be adjusted by modifying the x-location of the margin guidelines.</text>
  <text style="stroke:none;fill:black;font-family:sans-serif;font-size:13;" transform="matrix(1 0 0 1 776 2007)">Modifications are automatically applied proportionally to all</text>
  <text style="stroke:none;fill:black;font-family:sans-serif;font-size:13;" transform="matrix(1 0 0 1 776 2025)">scales and weights.</text>
  <g transform="matrix(0.2 0 0 0.2 1289 1933)">
   <path d="m14.209 9.32617 8.49609 8.54492c4.29688 4.3457 9.22852 4.05273 13.8672-1.07422l53.4668-58.9355-4.83398-4.88281-53.0762 58.3984c-1.75781 2.00195-3.41797 2.49023-5.76172 0.146484l-5.85938-5.81055c-2.34375-2.29492-1.80664-4.00391 0.195312-5.81055l57.373-54.0039-4.88281-4.83398-57.959 54.4434c-4.93164 4.58984-5.32227 9.47266-1.02539 13.8184Zm32.0801-90.9668c-2.09961 2.05078-2.24609 4.93164-1.07422 6.88477 1.17188 1.80664 3.4668 2.97852 6.68945 2.14844 7.32422-1.70898 14.9414-2.00195 22.0703 2.68555l-2.92969 7.27539c-1.70898 4.15039-0.830078 7.08008 1.85547 9.81445l11.4746 11.5723c2.44141 2.44141 4.49219 2.53906 7.32422 2.05078l5.32227-0.976562 3.32031 3.36914-0.195312 2.7832c-0.195312 2.49023 0.439453 4.39453 2.88086 6.78711l3.80859 3.71094c2.39258 2.39258 5.46875 2.53906 7.8125 0.195312l14.5508-14.5996c2.34375-2.34375 2.24609-5.32227-0.146484-7.71484l-3.85742-3.80859c-2.39258-2.39258-4.24805-3.17383-6.64062-2.97852l-2.88086 0.244141-3.22266-3.17383 1.2207-5.61523c0.634766-2.83203-0.146484-5.0293-3.07617-7.95898l-10.9863-10.9375c-16.6992-16.6016-38.8672-16.2109-53.3203-1.75781Zm7.4707 1.85547c12.1582-8.88672 28.6133-7.37305 39.7461 3.75977l12.1582 12.0605c1.17188 1.17188 1.36719 2.09961 1.02539 3.80859l-1.61133 7.42188 7.51953 7.42188 4.93164-0.292969c1.26953-0.0488281 1.66016 0.0488281 2.63672 1.02539l2.88086 2.88086-12.207 12.207-2.88086-2.88086c-0.976562-0.976562-1.12305-1.36719-1.07422-2.68555l0.341797-4.88281-7.4707-7.42188-7.61719 1.26953c-1.61133 0.341797-2.34375 0.195312-3.56445-0.976562l-10.0098-10.0098c-1.26953-1.17188-1.41602-2.00195-0.634766-3.85742l4.39453-10.4492c-7.8125-7.27539-17.9688-10.4004-28.125-7.42188-0.78125 0.195312-1.07422-0.439453-0.439453-0.976562Z"/>
  </g>
  <text style="stroke:none;fill:black;font-family:sans-serif;font-size:13;font-weight:bold;" transform="matrix(1 0 0 1 1289 1953)">Exporting</text>
  <text style="stroke:none;fill:black;font-family:sans-serif;font-size:13;" transform="matrix(1 0 0 1 1289 1971)">Symbols should be outlined when exporting to ensure the</text>
  <text style="stroke:none;fill:black;font-family:sans-serif;font-size:13;" transform="matrix(1 0 0 1 1289 1989)">design is preserved when submitting to Xcode.</text>
  <text id="template-version" style="stroke:none;fill:black;font-family:sans-serif;font-size:13;text-anchor:end;" transform="matrix(1 0 0 1 3036 1933)">Template v.5.0</text>
  <text style="stroke:none;fill:black;font-family:sans-serif;font-size:13;text-anchor:end;" transform="matrix(1 0 0 1 3036 1951)">Requires Xcode 15 or greater</text>
  <text id="descriptive-name" style="stroke:none;fill:black;font-family:sans-serif;font-size:13;text-anchor:end;" transform="matrix(1 0 0 1 3036 1969)">Generated from </text>
  <text style="stroke:none;fill:black;font-family:sans-serif;font-size:13;text-anchor:end;" transform="matrix(1 0 0 1 3036 1987)">Typeset at 100.0 points</text>
  <text style="stroke:none;fill:black;font-family:sans-serif;font-size:13;" transform="matrix(1 0 0 1 263 726)">Small</text>
  <text style="stroke:none;fill:black;font-family:sans-serif;font-size:13;" transform="matrix(1 0 0 1 263 1156)">Medium</text>
  <text style="stroke:none;fill:black;font-family:sans-serif;font-size:13;" transform="matrix(1 0 0 1 263 1586)">Large</text>
 </g>
 <g id="Guides">
  <g id="H-reference" style="fill:#27AAE1;stroke:none;" transform="matrix(1 0 0 1 339 696)">
   <path d="M0.993654 0L3.63775 0L29.3281-67.1323L30.0303-67.1323L30.0303-70.459L28.1226-70.459ZM11.6885-24.4799L46.9815-24.4799L46.2315-26.7285L12.4385-26.7285ZM55.1196 0L57.7637 0L30.6382-70.459L29.4326-70.459L29.4326-67.1323Z"/>
  </g>
  <line id="Baseline-S" style="fill:none;stroke:#27AAE1;opacity:1;stroke-width:0.5;" x1="263" x2="3036" y1="696" y2="696"/>
  <line id="Capline-S" style="fill:none;stroke:#27AAE1;opacity:1;stroke-width:0.5;" x1="263" x2="3036" y1="625.541" y2="625.541"/>
  <g id="H-reference" style="fill:#27AAE1;stroke:none;" transform="matrix(1 0 0 1 339 1126)">
   <path d="M0.993654 0L3.63775 0L29.3281-67.1323L30.0303-67.1323L30.0303-70.459L28.1226-70.459ZM11.6885-24.4799L46.9815-24.4799L46.2315-26.7285L12.4385-26.7285ZM55.1196 0L57.7637 0L30.6382-70.459L29.4326-70.459L29.4326-67.1323Z"/>
  </g>
  <line id="Baseline-M" style="fill:none;stroke:#27AAE1;opacity:1;stroke-width:0.5;" x1="263" x2="3036" y1="1126" y2="1126"/>
  <line id="Capline-M" style="fill:none;stroke:#27AAE1;opacity:1;stroke-width:0.5;" x1="263" x2="3036" y1="1055.54" y2="1055.54"/>
  <g id="H-reference" style="fill:#27AAE1;stroke:none;" transform="matrix(1 0 0 1 339 1556)">
   <path d="M0.993654 0L3.63775 0L29.3281-67.1323L30.0303-67.1323L30.0303-70.459L28.1226-70.459ZM11.6885-24.4799L46.9815-24.4799L46.2315-26.7285L12.4385-26.7285ZM55.1196 0L57.7637 0L30.6382-70.459L29.4326-70.459L29.4326-67.1323Z"/>
  </g>
  <line id="Baseline-L" style="fill:none;stroke:#27AAE1;opacity:1;stroke-width:0.5;" x1="263" x2="3036" y1="1556" y2="1556"/>
  <line id="Capline-L" style="fill:none;stroke:#27AAE1;opacity:1;stroke-width:0.5;" x1="263" x2="3036" y1="1485.54" y2="1485.54"/>
  <line id="right-margin-Black-S" style="fill:none;stroke:#FF3B30;stroke-width:0.5;opacity:1.0;" x1="2972.27" x2="2972.27" y1="600.785" y2="720.121"/>
  <line id="left-margin-Black-S" style="fill:none;stroke:#00AEEF;stroke-width:0.5;opacity:1.0;" x1="2894.53" x2="2894.53" y1="600.785" y2="720.121"/>
  <line id="right-margin-Regular-S" style="fill:none;stroke:#FF3B30;stroke-width:0.5;opacity:1.0;" x1="1482.9" x2="1482.9" y1="600.785" y2="720.121"/>
  <line id="left-margin-Regular-S" style="fill:none;stroke:#00AEEF;stroke-width:0.5;opacity:1.0;" x1="1416.79" x2="1416.79" y1="600.785" y2="720.121"/>
  <line id="right-margin-Ultralight-S" style="fill:none;stroke:#FF3B30;stroke-width:0.5;opacity:1.0;" x1="591.269" x2="591.269" y1="600.785" y2="720.121"/>
  <line id="left-margin-Ultralight-S" style="fill:none;stroke:#00AEEF;stroke-width:0.5;opacity:1.0;" x1="528.153" x2="528.153" y1="600.785" y2="720.121"/>
 </g>
 <g id="Symbols">
  <g id="Black-S" transform="matrix(1 0 0 1 2894.53 696)">
   <path class="monochrome-0 multicolor-0:tintColor hierarchical-0:secondary SFSymbolsPreviewWireframe" d="M19.6777-1.41602L44.1406-1.41602C58.5938-1.41602 67.9688-9.22852 67.9688-21.0938C67.9688-30.0293 60.3516-36.9629 51.1719-37.1582L51.1719-37.5488C59.0332-38.5254 64.9414-44.3848 64.9414-52.1973C64.9414-62.7441 56.8359-69.043 42.9688-69.043L19.6777-69.043C13.3789-69.043 9.76562-65.2832 9.76562-58.6426L9.76562-11.8164C9.76562-5.17578 13.3789-1.41602 19.6777-1.41602ZM29.6387-41.9434L29.6387-55.4688L37.5977-55.4688C42.627-55.4688 45.6055-52.8809 45.6055-48.7305C45.6055-44.6289 42.4316-41.9434 37.3047-41.9434ZM29.6387-14.9902L29.6387-30.5176L38.8672-30.5176C44.7754-30.5176 47.7539-27.7344 47.7539-22.9492C47.7539-17.8223 44.8242-14.9902 38.7207-14.9902ZM30.5664-61.2793L30.5664-75.5371C30.5664-76.6113 29.6875-77.4902 28.6133-77.4902C27.5391-77.4902 26.6602-76.6113 26.6602-75.5371L26.6602-61.2793ZM42.2852-61.2793L42.2852-75.5371C42.2852-76.6113 41.4062-77.4902 40.332-77.4902C39.2578-77.4902 38.3789-76.6113 38.3789-75.5371L38.3789-61.2793ZM30.5664-7.91016L26.6602-7.91016L26.6602 6.34766C26.6602 7.42188 27.5391 8.30078 28.6133 8.30078C29.6875 8.30078 30.5664 7.42188 30.5664 6.34766ZM42.2852-7.91016L38.3789-7.91016L38.3789 6.34766C38.3789 7.42188 39.2578 8.30078 40.332 8.30078C41.4062 8.30078 42.2852 7.42188 42.2852 6.34766Z"/>
   <path class="monochrome-1 multicolor-1:tintColor hierarchical-1:primary SFSymbolsPreviewWireframe" d="M69.9659 20.2949C84.9073 20.2949 97.261 7.89258 97.261-7.0488C97.261-21.9902 84.9073-34.2949 69.9659-34.2949C55.0245-34.2949 42.671-21.9902 42.671-7.0488C42.671 7.89258 55.0245 20.2949 69.9659 20.2949Z"/>
   <path class="monochrome-2 multicolor-2:tintColor hierarchical-2:primary SFSymbolsPreviewWireframe" d="M69.9659 13.9473C81.4405 13.9473 90.9132 4.37695 90.9132-7.0488C90.9132-18.4746 81.4405-27.9473 69.9659-27.9473C58.4913-27.9473 49.0186-18.4746 49.0186-7.0488C49.0186 4.37695 58.4913 13.9473 69.9659 13.9473Z"/>
   <path class="monochrome-3 multicolor-3:white hierarchical-3:primary SFSymbolsPreviewWireframe" d="M69.9659 6.13476C68.794 6.13476 67.7198 5.74414 66.6456 4.66992L57.5147-4.11914C56.7335-4.8516 56.294-5.8281 56.294-6.9023C56.294-9.1973 58.1495-11.1016 60.4932-11.1016C61.6163-11.1016 62.7882-10.6621 63.3741-9.832L65.5225-6.9023L65.5714-6.8535L65.4249-9.4902L65.4249-15.7402C65.4249-18.377 67.2315-20.1348 69.9659-20.1348C72.7003-20.1348 74.5069-18.377 74.5069-15.7402L74.5069-9.4902L74.3604-6.8535L74.4093-6.9023L76.5577-9.832C77.1436-10.6621 78.3155-11.1016 79.4386-11.1016C81.7823-11.1016 83.6378-9.1973 83.6378-6.9023C83.6378-5.8281 83.1983-4.8516 82.4171-4.11914L73.2862 4.66992C72.212 5.74414 71.1378 6.13476 69.9659 6.13476Z"/>
  </g>
  <g id="Regular-S" transform="matrix(1 0 0 1 1416.79 696)">
   <path class="monochrome-0 multicolor-0:tintColor hierarchical-0:secondary SFSymbolsPreviewWireframe" d="M15.1855-0.585938L33.3008-0.585938C47.7539-0.585938 56.3477-7.71484 56.3477-19.6777C56.3477-28.8086 50.3418-35.3027 41.0156-36.4746L41.0156-36.8164C47.7051-38.0371 52.9297-44.6289 52.9297-51.7578C52.9297-61.9629 45.0195-68.75 33.3496-68.75L15.1855-68.75C11.9141-68.75 9.76562-66.5527 9.76562-63.2812L9.76562-6.10352C9.76562-2.7832 11.9141-0.585938 15.1855-0.585938ZM18.2129-39.4043L18.2129-61.3281L31.2988-61.3281C39.5996-61.3281 44.4824-57.7148 44.4824-50.8301C44.4824-43.3594 38.8184-39.4043 28.8086-39.4043ZM18.2129-8.00781L18.2129-32.0312L31.0547-32.0312C41.9922-32.0312 47.8027-28.0273 47.8027-20.0684C47.8027-12.0605 42.1875-8.00781 31.8848-8.00781ZM24.2188-63.623L24.2188-75.3418C24.2188-76.9043 22.9492-78.1738 21.3867-78.1738C19.8242-78.1738 18.5547-76.9043 18.5547-75.3418L18.5547-63.623ZM36.7676-63.623L36.7676-75.3418C36.7676-76.9043 35.498-78.1738 33.9355-78.1738C32.373-78.1738 31.1035-76.9043 31.1035-75.3418L31.1035-63.623ZM24.2188-5.71289L18.5547-5.71289L18.5547 6.05469C18.5547 7.61719 19.8242 8.88672 21.3867 8.88672C22.9492 8.88672 24.2188 7.61719 24.2188 6.05469ZM36.7676-5.71289L31.1035-5.71289L31.1035 6.05469C31.1035 7.61719 32.373 8.88672 33.9355 8.88672C35.498 8.88672 36.7676 7.61719 36.7676 6.05469Z"/>
   <path class="monochrome-1 multicolor-1:tintColor hierarchical-1:primary SFSymbolsPreviewWireframe" d="M59.4991 18.3906C73.3663 18.3906 84.8895 6.86721 84.8895-6.99995C84.8895-20.916 73.4639-32.3906 59.4991-32.3906C45.5831-32.3906 34.1085-20.916 34.1085-6.99995C34.1085 6.96486 45.5342 18.3906 59.4991 18.3906Z"/>
   <path class="monochrome-2 multicolor-2:tintColor hierarchical-2:primary SFSymbolsPreviewWireframe" d="M59.4991 12.6778C70.1436 12.6778 79.2256 3.74221 79.2256-6.99995C79.2256-17.791 70.2901-26.6778 59.4991-26.6778C48.7081-26.6778 39.8213-17.791 39.8213-6.99995C39.8213 3.83986 48.7081 12.6778 59.4991 12.6778Z"/>
   <path class="monochrome-3 multicolor-3:white hierarchical-3:primary SFSymbolsPreviewWireframe" d="M59.5479 5.30471C58.8643 5.30471 58.2784 5.01174 57.546 4.32814L47.6338-4.80275C47.0479-5.29095 46.8038-5.92575 46.7549-6.65815C46.6573-8.12305 47.8292-9.14845 49.294-9.14845C49.9776-9.19725 50.71-8.80665 51.1983-8.31835L55.2022-4.26561L57.0088-2.41014L56.7647-7.09765L56.7647-16.6191C56.7647-18.084 58.0342-19.3046 59.5479-19.3046C61.0616-19.3046 62.3799-18.084 62.3799-16.6191L62.3799-7.09765L62.1358-2.41014L63.8936-4.26561L67.8975-8.31835C68.4346-8.80665 69.1182-9.09955 69.8018-9.14845C71.2178-9.24605 72.3409-8.12305 72.3409-6.65815C72.3409-5.92575 72.0967-5.29095 71.5108-4.80275L61.5499 4.32814C60.8174 4.96291 60.2803 5.30471 59.5479 5.30471Z"/>
  </g>
  <g id="Ultralight-S" transform="matrix(1 0 0 1 528.153 696)">
   <path class="monochrome-0 multicolor-0:tintColor hierarchical-0:secondary SFSymbolsPreviewWireframe" d="M11.3257-2.53856L31.2119-2.53856C44.7569-2.53856 53.3506-9.12255 53.3506-19.6323C53.3506-29.3535 45.8916-35.3027 36.4292-36.2476L36.4292-36.3623C44.6626-37.9463 49.751-43.9023 49.751-52.0303C49.751-61.4634 42.0225-67.8418 30.625-67.8418L11.3257-67.8418C10.3247-67.8418 9.76562-67.3247 9.76562-66.2329L9.76562-4.06007C9.76562-3.01025 10.3247-2.53856 11.3257-2.53856ZM12.0372-37.2246L12.0372-65.6875L30.4815-65.6875C40.7803-65.6875 47.4795-60.2124 47.4795-52.0107C47.4795-43.0869 40.6802-37.2246 30.1255-37.2246ZM12.0372-4.64749L12.0372-35.0283L30.1919-35.0283C43.1274-35.0283 51.0722-29.1626 51.0722-19.6597C51.0722-10.4258 43.459-4.64749 31.1582-4.64749ZM22.4024-66.8471L22.4024-75.5234C22.4024-76.1323 21.9502-76.5845 21.3413-76.5845C20.7324-76.5845 20.2803-76.1323 20.2803-75.5234L20.2803-66.8471ZM32.272-66.8471L32.272-75.5234C32.272-76.1323 31.7744-76.5845 31.211-76.5845C30.6021-76.5845 30.1499-76.1323 30.1499-75.5234L30.1499-66.8471ZM22.4024-3.39699L20.2803-3.39699L20.2803 6.41797C20.2803 7.02686 20.7324 7.47901 21.3413 7.47901C21.9502 7.47901 22.4024 7.02686 22.4024 6.41797ZM32.272-3.39699L30.1499-3.39699L30.1499 6.41797C30.1499 7.02686 30.6021 7.47901 31.211 7.47901C31.7744 7.47901 32.272 7.02686 32.272 6.41797Z"/>
   <path class="monochrome-1 multicolor-1:tintColor hierarchical-1:primary SFSymbolsPreviewWireframe" d="M56.8044 14.3492C68.4919 14.3492 78.1535 4.73295 78.1535-6.99998C78.1535-18.7363 68.5441-28.3492 56.8044-28.3492C45.1135-28.3492 35.4552-18.6909 35.4552-6.99998C35.4552 4.73979 45.1101 14.3492 56.8044 14.3492Z"/>
   <path class="monochrome-2 multicolor-2:tintColor hierarchical-2:primary SFSymbolsPreviewWireframe" d="M56.8044 11.2701C66.8131 11.2701 75.1232 3.06106 75.1232-6.99998C75.1232-17.0645 66.8688-25.27 56.8044-25.27C46.8307-25.27 38.5344-17.0191 38.5344-6.99998C38.5344 3.0679 46.8307 11.2701 56.8044 11.2701Z"/>
   <path class="monochrome-3 multicolor-3:white hierarchical-3:primary SFSymbolsPreviewWireframe" d="M56.8533 5.12307C56.533 5.12307 56.2195 5.01174 55.8502 4.64602L46.1199-4.93898C45.5793-5.47268 45.3351-5.78958 45.3316-6.34028C45.3249-7.12398 45.9519-7.69528 46.7355-7.69528C47.1467-7.69868 47.5159-7.48978 47.7771-7.22848L49.7376-5.17378L55.5856 0.677735L55.4778-5.00878L55.4778-18.1631C55.4778-18.856 56.1115-19.4863 56.8533-19.4863C57.6404-19.4863 58.2322-18.856 58.2322-18.1631L58.2322-5.00878L58.1697 0.677735L63.9689-5.17378L65.9748-7.22848C66.1486-7.48978 66.5598-7.69188 66.971-7.69528C67.7966-7.70218 68.3747-7.12398 68.3747-6.34028C68.3747-5.83498 68.1305-5.47268 67.5901-4.93898L57.8561 4.64602C57.5779 4.9175 57.2677 5.12307 56.8533 5.12307Z"/>
  </g>
 </g>
</svg>
